<mxfile host="app.diagrams.net" modified="2024-01-26T11:26:06.930Z" agent="Mozilla/5.0 (Macintosh; Intel Mac OS X 10_15_7) AppleWebKit/537.36 (KHTML, like Gecko) Chrome/120.0.0.0 Safari/537.36" version="23.0.2" etag="fc_DpDs4LZLeiaW9lxt7" type="github">
  <diagram name="第 1 页" id="e6TyFZ_0IbVGAOVuVtvO">
    <mxGraphModel>
      <root>
        <mxCell id="0" />
        <mxCell id="1" parent="0" />
      </root>
    </mxGraphModel>
  </diagram>
</mxfile>
